<svg xmlns="http://www.w3.org/2000/svg" viewBox="0 0 64 64">
  <!-- Background -->
  <rect width="64" height="64" rx="12" fill="#1a1a24" />
  
  <!-- Soundwave Elements -->
  <path d="M8 32 L8 24 L14 24 L14 40 L8 40 L8 32" fill="#b67aff" />
  <path d="M18 32 L18 16 L24 16 L24 48 L18 48 L18 32" fill="#9d4eff" />
  <path d="M28 32 L28 20 L34 20 L34 44 L28 44 L28 32" fill="#b67aff" />
  <path d="M38 32 L38 12 L44 12 L44 52 L38 52 L38 32" fill="#9d4eff" />
  <path d="M48 32 L48 24 L54 24 L54 40 L48 40 L48 32" fill="#b67aff" />
  
  <!-- Circle Dot (like your logo) -->
  <circle cx="16" cy="16" r="4" fill="#b67aff" />
  
  <!-- IQ Text Element -->
  <path d="M45 45 L52 37 L58 45" stroke="#b67aff" stroke-width="3" fill="none" />
</svg>